<?xml version="1.0" encoding="UTF-8" standalone="no"?>
<!-- Created with Inkscape (http://www.inkscape.org/) -->

<svg
   width="174.694mm"
   height="33.792mm"
   viewBox="0 0 174.694 33.792"
   version="1.1"
   id="svg30617"
   xmlns="http://www.w3.org/2000/svg"
   xmlns:svg="http://www.w3.org/2000/svg">
  <defs
     id="defs30614" />
  <g
     id="layer1">
    <path
       style="vector-effect:non-scaling-stroke;fill:none;stroke:#000000;stroke-width:0.264583;stroke-linecap:round;stroke-linejoin:round;stroke-dasharray:none;stroke-opacity:1;-inkscape-stroke:hairline"
       d="m 10.05677,20.728196 -0.004,8.04077 c -7.27e-4,1.47769 -0.5141088,2.533998 -1.3350048,3.468288 -0.838074,0.95384 -2.157326,1.42509 -2.711126,1.45746 -0.668617,0.0391 -2.576117,0.12465 -3.744573,-0.78007 -0.90217,-0.69854 -2.10663001,-1.728118 -2.11899001,-3.951508 l -0.06799,-12.23018 c 0,0 0.134455,-9.4876498 0.03216,-11.7482798 -0.102297,-2.26062 1.85942201,-4.87309998 4.92062101,-4.90883998 3.061199,-0.0358 4.9965728,2.28919998 4.9957108,5.14986998 -8.62e-4,2.86067 0.08145,7.1580198 0.08145,7.1580198 l 18.627858,-0.003 c 0,0 0.05059,-5.6941198 0.07856,-7.7427098 0.02796,-2.04859 1.862077,-4.52480998 5.000669,-4.54797998 3.138592,-0.0232 4.871221,2.71365998 4.893498,4.47357998 0.02228,1.75992 0.09948,22.5593098 0.09948,22.5593098 0,0 11.609018,-21.8708998 12.820321,-24.1497898 0.659705,-1.24113 1.69568,-2.19812998 4.499779,-2.21118998 2.706494,-0.0126 4.767964,-0.0469 6.826766,0.0134 2.743301,0.0803 3.731484,0.94333998 4.358507,2.08669998 1.258542,2.29492 12.876685,24.3253498 12.876685,24.3253498 0,0 0.09784,-18.6141298 0.111471,-22.2853298 0.0112,-3.0166 2.77332,-4.25767998 4.46662,-4.23441998 1.6933,0.0233 20.089058,-0.0683 23.197668,-0.002 3.10861,0.0661 5.90017,1.84507998 7.36268,3.57895998 1.87408,2.22179 2.69419,5.07322 2.68384,7.5806698 -0.0139,3.36987 -1.42553,6.85275 -4.06509,8.76857 -2.04408,1.48362 -3.56832,1.64276 -4.96925,1.95561 l 2.95261,2.83981 9.34983,-0.0402 c 0,0 0.0609,-17.4210398 0.10941,-20.5962598 0.0424,-2.77718 2.4821,-4.64022998 4.965,-4.63977998 2.48289,4.5e-4 4.90447,2.19842998 4.9271,4.65427998 0.0226,2.45585 -0.0123,20.4475498 0.0216,23.2910898 0.0339,2.84353 -2.27815,4.972708 -4.86908,5.050658 -2.18169,0.0656 -14.66093,0.0241 -17.43354,0.0176 -2.77261,-0.006 -3.78745,-1.60365 -5.93018,-3.601478 -2.14273,-1.99782 -6.931778,-6.56807 -8.679788,-8.34354 -1.74802,-1.77547 -0.45642,-5.13357 2.14221,-5.27217 2.59864,-0.1386 5.625538,-0.23375 8.256038,-0.35955 2.136,-0.10215 3.13677,-1.81958 3.12181,-3.41828 -0.015,-1.5987 -1.51769,-3.0446298 -2.80374,-3.0480798 -2.06202,-0.006 -14.858928,-0.0436 -14.858928,-0.0436 0,0 0.0345,16.5491998 -0.0588,20.3350198 -0.0444,1.80336 -1.70441,3.605168 -4.2215,3.646258 -1.31859,0.0215 -8.301555,0.10773 -11.788704,-0.033 -2.529371,-0.1021 -3.141112,-1.6296 -4.092348,-3.530798 -0.800871,-1.60067 -1.09042,-2.19997 -1.09042,-2.19997 l -18.990256,-0.004 c 0,0 -0.623959,1.48495 -1.845607,3.61384 -0.535609,0.933358 -1.253514,1.350998 -2.243123,1.740248 -0.721064,0.28361 -1.507556,0.35317 -2.315089,0.42157 -1.553175,0.0995 -6.832617,-0.0788 -9.843281,0.0123 -1.570698,0.0476 -2.803291,-0.78746 -3.60063,-1.52629 -0.880563,-0.815938 -1.32559,-1.861088 -1.339521,-2.156568 -0.05,-1.06063 -0.03775,-8.64216 -0.03775,-8.64216 z"
       id="path14487" />
    <path
       style="vector-effect:non-scaling-stroke;fill:none;stroke:#000000;stroke-width:0.264583;stroke-linecap:butt;stroke-linejoin:round;stroke-dasharray:none;stroke-opacity:1;-inkscape-stroke:hairline"
       d="m 59.499146,8.2385962 c 2.002865,4.0138498 4.005731,8.0277098 6.008596,12.0415598 -4.017199,0.01 -8.034397,0.0195 -12.051596,0.0292 2.014333,-4.02359 4.028667,-8.04717 6.043,-12.0707598 z"
       id="path17393" />
    <path
       style="vector-effect:non-scaling-stroke;fill:none;stroke:#000000;stroke-width:0.264583;stroke-linecap:butt;stroke-linejoin:miter;stroke-dasharray:none;stroke-opacity:1;-inkscape-stroke:hairline"
       d="m 160.85269,9.1559062 c 2.53581,0.0427 3.64002,1.9981598 3.72526,3.3017298 0.0852,1.30357 0.0562,6.98517 0.0426,8.48706 -0.0136,1.5019 -1.15727,3.60517 -3.59429,3.71819 -1.78693,0.0829 -4.7956,0.0981 -6.83373,0.10748 -2.03812,0.009 -2.56486,2.9e-4 -5.22853,-0.028 -2.66366,-0.0283 -4.15431,-1.83853 -4.15434,-3.89304 -3e-5,-2.05452 -0.0398,-4.56631 -0.0398,-7.35745 0,-2.79114 1.82158,-4.3062298 3.42445,-4.3216798 1.60287,-0.0154 4.38024,-0.0788 6.49411,-0.0622 2.11388,0.0167 3.62844,0.005 6.16425,0.0479 z"
       id="path19575" />
    <path
       style="vector-effect:non-scaling-stroke;fill:none;stroke:#000000;stroke-width:0.264583;stroke-linecap:butt;stroke-linejoin:miter;stroke-dasharray:none;stroke-opacity:1;-inkscape-stroke:hairline"
       d="m 170.74103,3.5842162 c 3.03177,2.64485 3.45676,7.0501198 3.65994,8.1178998 0.20318,1.06777 0.25079,5.06782 0.19809,7.59644 -0.0527,2.52862 -0.30964,3.70641 -0.59922,5.0452 -0.28957,1.33879 -0.99412,3.58991 -2.73201,5.37853 -2.14521,2.207828 -5.01197,2.742828 -6.58696,3.026368 -1.575,0.28353 -5.59038,0.60583 -8.15091,0.5762 -2.60037,-0.0301 -5.96454,0.0218 -7.99995,-0.12076 -2.45725,-0.17206 -4.15869,-0.43354 -5.52462,-0.78721 -1.50812,-0.3905 -2.7311,-0.93366 -3.75996,-1.784368 -2.05773,-1.70141 -3.17425,-3.20917 -3.88484,-6.1637 -0.71059,-2.95453 -0.82624,-10.26734 -0.22036,-13.6481 0.60588,-3.3807698 1.94787,-6.0745798 4.02238,-7.6836698 2.07451,-1.60908 4.83297,-2.0297 7.1132,-2.32396998 2.28024,-0.29428 5.34727,-0.34005 10.3033,-0.31099 4.95604,0.0291 11.03252,0.49843998 14.16192,3.08212998 z"
       id="path26119" />
  </g>
</svg>
