<?xml version="1.0" encoding="UTF-8" standalone="no"?>
<!-- Created with Inkscape (http://www.inkscape.org/) -->

<svg
   width="175mm"
   height="35mm"
   viewBox="0 0 175 35"
   version="1.1"
   id="svg30617"
   sodipodi:docname="hario-logo.svg"
   inkscape:version="1.3 (1:1.3+202307231459+0e150ed6c4)"
   xmlns:inkscape="http://www.inkscape.org/namespaces/inkscape"
   xmlns:sodipodi="http://sodipodi.sourceforge.net/DTD/sodipodi-0.dtd"
   xmlns="http://www.w3.org/2000/svg"
   xmlns:svg="http://www.w3.org/2000/svg">
  <sodipodi:namedview
     id="namedview1"
     pagecolor="#ffffff"
     bordercolor="#666666"
     borderopacity="1.0"
     inkscape:showpageshadow="2"
     inkscape:pageopacity="0.0"
     inkscape:pagecheckerboard="false"
     inkscape:deskcolor="#d1d1d1"
     inkscape:document-units="mm"
     showgrid="false"
     inkscape:zoom="2.8655344"
     inkscape:cx="330.13039"
     inkscape:cy="63.862434"
     inkscape:window-width="2560"
     inkscape:window-height="1415"
     inkscape:window-x="0"
     inkscape:window-y="25"
     inkscape:window-maximized="1"
     inkscape:current-layer="svg30617" />
  <defs
     id="defs30614" />
  <g
     id="g1"
     style="stroke-width:0.1;stroke-dasharray:none">
    <path
       id="path26119"
       style="fill:#ff00ff;stroke:#000000;stroke-width:0.1;stroke-linecap:butt;stroke-linejoin:miter;stroke-dasharray:none;stroke-opacity:1"
       d="M 153.35188 1.1012248 C 150.29157 1.1156323 148.13897 1.196258 146.42879 1.4169678 C 144.14856 1.7112375 141.39004 2.1317785 139.31553 3.7408569 C 137.24102 5.3499453 135.89891 8.0438594 135.29303 11.424626 C 134.68715 14.805382 134.8031 22.118361 135.51369 25.072888 C 136.22428 28.027415 137.34048 29.534928 139.39821 31.236336 C 140.42707 32.087043 141.65007 32.630224 143.15819 33.020723 C 144.52412 33.374393 146.22567 33.636212 148.68291 33.808272 C 150.71832 33.950832 154.08258 33.898578 156.68294 33.928678 C 159.24347 33.958308 163.25887 33.636016 164.83387 33.352486 C 166.40885 33.068946 169.27585 32.53414 171.42106 30.326314 C 173.15895 28.537696 173.86311 26.28662 174.15268 24.947831 C 174.44226 23.609043 174.69942 22.431279 174.75212 19.902661 C 174.80482 17.374044 174.75738 13.373995 174.5542 12.306226 C 174.35102 11.238447 173.92573 6.8332222 170.89396 4.1883748 C 167.76456 1.6046874 161.68807 1.1349756 156.73204 1.1058757 C 155.49303 1.0986107 154.37198 1.0964223 153.35188 1.1012248 z M 154.84119 9.7120687 C 156.95507 9.7287687 158.46987 9.7172278 161.00568 9.7601278 C 163.54148 9.8028277 164.64579 11.758166 164.73103 13.061735 C 164.81623 14.365304 164.787 20.046667 164.7734 21.548556 C 164.7598 23.050454 163.61633 25.153655 161.17931 25.266675 C 159.39238 25.349575 156.38375 25.364782 154.34562 25.374162 C 152.3075 25.383162 151.78066 25.374546 149.117 25.346257 C 146.45334 25.317957 144.96276 23.507979 144.96273 21.453471 C 144.9627 19.398953 144.92294 16.886918 144.92294 14.09578 C 144.92294 11.304643 146.74467 9.7895304 148.34753 9.7740804 C 149.9504 9.7586804 152.72733 9.6954687 154.84119 9.7120687 z " />
    <path
       id="path14487"
       style="fill:#ff00ff;stroke:#000000;stroke-width:0.1;stroke-linecap:round;stroke-linejoin:round;stroke-dasharray:none;stroke-opacity:1"
       d="M 5.1810791 0.68006185 C 2.1198832 0.71580181 0.15815232 3.3281884 0.26044922 5.5888062 C 0.36274412 7.8494339 0.22789307 17.336926 0.22789307 17.336926 L 0.29610596 29.567187 C 0.30846594 31.790575 1.5126706 32.820345 2.4148397 33.518884 C 3.5832945 34.423603 5.4912144 34.337782 6.1598307 34.298682 C 6.7136302 34.266312 8.0327032 33.795245 8.8707764 32.841406 C 9.6916715 31.907117 10.204852 30.850573 10.205579 29.372884 L 10.209713 21.332031 L 28.931567 21.320662 C 28.931567 21.320662 28.919291 28.901883 28.969291 29.962512 C 28.983222 30.257992 29.428182 31.303033 30.308744 32.11897 C 31.106083 32.857799 32.338862 33.693091 33.909558 33.645492 C 36.920219 33.554392 42.199195 33.732589 43.752368 33.633089 C 44.5599 33.564689 45.346409 33.495019 46.067472 33.21141 C 47.05708 32.82216 47.775138 32.404821 48.310746 31.471464 C 49.532393 29.342576 50.156628 27.857214 50.156628 27.857214 L 69.146684 27.861348 C 69.146684 27.861348 69.436186 28.460546 70.237056 30.061214 C 71.188292 31.96241 71.799945 33.490165 74.329313 33.592265 C 77.816459 33.732995 84.799669 33.646838 86.118258 33.625338 C 88.635345 33.584248 90.295305 31.782407 90.339705 29.979049 C 90.433005 26.193232 90.398617 9.6438558 90.398617 9.6438558 C 90.398617 9.6438558 103.19512 9.6817808 105.25714 9.6877808 C 106.54319 9.6912308 108.0461 11.136958 108.0611 12.735657 C 108.07606 14.334355 107.07533 16.051903 104.93933 16.154053 C 102.30883 16.279853 99.282142 16.375121 96.683504 16.513721 C 94.084877 16.652321 92.792981 20.010282 94.540999 21.78575 C 96.289008 23.561219 101.07836 28.131609 103.22109 30.129427 C 105.36382 32.127253 106.37835 33.724758 109.15096 33.730758 C 111.92357 33.737258 124.40283 33.778788 126.58452 33.713188 C 129.17545 33.635238 131.48737 31.50586 131.45347 28.662333 C 131.41957 25.818796 131.45489 7.8270959 131.43229 5.3712484 C 131.40966 2.9154008 128.98783 0.71771888 126.50494 0.71726888 C 124.02204 0.71681888 121.58227 2.5796017 121.53987 5.356779 C 121.49136 8.5319958 121.43031 25.952938 121.43031 25.952938 L 112.0805 25.993245 L 109.12822 23.153625 C 110.52915 22.840776 112.05335 22.681291 114.09743 21.197673 C 116.73699 19.281854 118.1484 15.799082 118.1623 12.429215 C 118.17265 9.9217684 117.35282 7.0705874 115.47874 4.8487996 C 114.01623 3.1149214 111.22449 1.3357899 108.11588 1.2696899 C 105.00727 1.20339 86.611629 1.295057 84.918331 1.271757 C 83.225033 1.248497 80.46262 2.4895269 80.45142 5.5061239 C 80.437789 9.1773202 80.340316 27.791585 80.340316 27.791585 C 80.340316 27.791585 68.722123 5.760856 67.463582 3.4659383 C 66.83656 2.3225795 65.84849 1.4595439 63.105192 1.379244 C 61.046392 1.318944 58.98471 1.3532081 56.278219 1.3658081 C 53.474122 1.3788681 52.437939 2.3359139 51.778235 3.5770426 C 50.566933 5.8559304 38.958346 27.72699 38.958346 27.72699 C 38.958346 27.72699 38.88089 6.9275615 38.85861 5.1676432 C 38.836333 3.407725 37.103958 0.67081451 33.965369 0.69401449 C 30.82678 0.71718446 28.9926 3.1934693 28.96464 5.2420573 C 28.93667 7.2906452 28.886092 12.984737 28.886092 12.984737 L 10.257772 12.987838 C 10.257772 12.987838 10.175778 8.6902855 10.17664 5.8296183 C 10.177502 2.9689512 8.242275 0.64426188 5.1810791 0.68006185 z M 59.652173 8.8423543 C 61.655036 12.8562 63.657729 16.870151 65.660592 20.883997 C 61.643397 20.893997 57.626326 20.903752 53.609131 20.913452 C 55.623462 16.889866 57.637842 12.86594 59.652173 8.8423543 z " />
  </g>
</svg>
